<?xml version="1.0" encoding="UTF-8"?>
<svg width="163px" height="163px" viewBox="0 0 163 163" version="1.1" xmlns="http://www.w3.org/2000/svg" xmlns:xlink="http://www.w3.org/1999/xlink">
    <!-- Generator: Sketch 53.2 (72643) - https://sketchapp.com -->
    <title>icon</title>
    <desc>Created with Sketch.</desc>
    <g id="Page-1" stroke="none" stroke-width="1" fill="none" fill-rule="evenodd">
        <g id="icon">
            <path d="M0,81.5006436 C0,36.487025 36.4885998,0 81.498713,0 C126.5114,0 163,36.487025 163,81.5006436 C163,126.509114 126.5114,163 81.498713,163 C36.4885998,163 0,126.509114 0,81.5006436 Z" id="Shape" fill="#284A9F" fill-rule="nonzero"></path>
            <g id="category" transform="translate(28.000000, 38.000000)">
                <path d="M116,50.5246622 C116,52.0236486 115.07587,53.5226352 114.09013,54.646875 L93.3896083,79.3801519 C89.8163039,83.6272804 82.5464777,87 77.1249124,87 L10.0946505,87 C7.8767374,87 4.73469388,86.3129645 4.73469388,83.5023648 C4.73469388,82.0033783 5.65882432,80.5043919 6.64456347,79.3801519 L27.3450855,54.646875 C30.91839,50.3997466 38.1882161,47.027027 43.6097814,47.027027 L110.640043,47.027027 C112.857956,47.027027 116,47.7140625 116,50.5246622 Z M94.6938776,29.8732479 L94.6938776,39.8309973 L43.4013605,39.8309973 C35.695153,39.8309973 26.1394558,44.2497485 21.1458333,50.2243981 L0.0616496599,75.2432432 C0.0616496599,74.7453558 0,74.1852323 0,73.687345 L0,13.940849 C0,6.28582928 6.22661564,0 13.8095238,0 L33.537415,0 C41.1203231,0 47.3469388,6.28582928 47.3469388,13.940849 L47.3469388,15.9323989 L80.8843537,15.9323989 C88.4672619,15.9323989 94.6938776,22.2182282 94.6938776,29.8732479 Z" id="aufrsilmql-Shape" fill="#FFFFFF" fill-rule="nonzero"></path>
                <path d="M20.7038403,19.0296118 L20.7038403,24.9703882 C20.7038403,24.9703882 26.3529593,24.9626538 28.65326,24.9626538 C27.4076255,28.8136617 25.4708157,30.9107963 20.7038403,30.9107963 C15.8797192,30.9107963 12.1146043,26.9213053 12.1146043,22 C12.1146043,17.0786947 15.8797192,13.0892037 20.7038403,13.0892037 C23.2544253,13.0892037 24.9018891,14.0037076 26.4126369,15.2784148 C27.6221032,14.0445896 27.5211938,13.8685393 30.5983885,10.904044 C27.9863175,8.47838044 24.5141655,7 20.7038403,7 C12.5829832,7 6,13.7156923 6,22 C6,30.2843077 12.5829832,37 20.7038403,37 C32.8422667,37 35.8087866,26.2178407 34.8253719,19.0296118 L20.7038403,19.0296118 Z" id="Google_Plus_1_" fill="#284A9F"></path>
            </g>
        </g>
    </g>
</svg>